<svg width="25" height="25" viewBox="0 0 25 25" fill="none" xmlns="http://www.w3.org/2000/svg">
<path fill-rule="evenodd" clip-rule="evenodd" d="M12.5 23.25C6.56294 23.25 1.75 18.4371 1.75 12.5C1.75 6.56294 6.56294 1.75 12.5 1.75C18.4371 1.75 23.25 6.56294 23.25 12.5C23.25 18.4371 18.4371 23.25 12.5 23.25ZM16.98 9.87756C17.4645 9.61257 17.6425 9.00493 17.3775 8.52038C17.1125 8.03582 16.5049 7.85782 16.0204 8.12282C14.1917 9.12286 12.6796 11.0529 11.6629 12.6096C11.2872 13.185 10.9662 13.7297 10.7094 14.1911C10.4698 13.9587 10.2326 13.757 10.0204 13.5892C9.7427 13.3697 9.49282 13.1965 9.31063 13.0772L8.99559 12.8815C8.51585 12.6079 7.90513 12.775 7.63152 13.2548C7.35797 13.7344 7.52493 14.3449 8.00442 14.6187L8.21471 14.7502C8.35752 14.8437 8.55764 14.9823 8.77997 15.1581C9.23753 15.5198 9.73126 15.994 10.042 16.5135C10.2327 16.8323 10.5844 17.0191 10.9553 16.9987C11.3261 16.9782 11.6551 16.7536 11.8096 16.4159L11.9079 16.2105C11.9756 16.0721 12.077 15.8697 12.209 15.6204C12.4735 15.1207 12.8581 14.4372 13.3374 13.7032C14.3208 12.1975 15.6086 10.6275 16.98 9.87756Z" fill="#ED2027"/>
</svg>
