<svg width="24" height="25" viewBox="0 0 24 25" fill="none" xmlns="http://www.w3.org/2000/svg">
<path fill-rule="evenodd" clip-rule="evenodd" d="M12 23.7002C6.06294 23.7002 1.25 18.8873 1.25 12.9502C1.25 7.01314 6.06294 2.2002 12 2.2002C17.9371 2.2002 22.75 7.01314 22.75 12.9502C22.75 18.8873 17.9371 23.7002 12 23.7002ZM16.48 10.3278C16.9645 10.0628 17.1425 9.45513 16.8775 8.97058C16.6125 8.48602 16.0049 8.30802 15.5204 8.57302C13.6917 9.57306 12.1796 11.5031 11.1629 13.0598C10.7872 13.6352 10.4662 14.1799 10.2094 14.6413C9.96984 14.4089 9.73258 14.2072 9.52038 14.0394C9.2427 13.8199 8.99282 13.6467 8.81063 13.5274L8.49559 13.3317C8.01585 13.0581 7.40513 13.2252 7.13152 13.705C6.85797 14.1846 7.02493 14.7951 7.50442 15.0689L7.71471 15.2004C7.85752 15.2939 8.05764 15.4325 8.27997 15.6083C8.73753 15.97 9.23126 16.4442 9.54198 16.9637C9.73267 17.2825 10.0844 17.4693 10.4553 17.4489C10.8261 17.4284 11.1551 17.2038 11.3096 16.8661L11.4079 16.6607C11.4756 16.5223 11.577 16.3199 11.709 16.0706C11.9735 15.5709 12.3581 14.8874 12.8374 14.1534C13.8208 12.6477 15.1086 11.0777 16.48 10.3278Z" fill="#008443"/>
</svg>
